<svg id="Ebene_1" data-name="Ebene 1" xmlns="http://www.w3.org/2000/svg" viewBox="0 0 214.22 54.81"><path d="M73.89,15.7A6.17,6.17,0,0,0,78.5,9.51c0-4.3-3.29-7-8.82-7H57.45V29.63H70.1c5.73,0,9-2.91,9-7.39A6.58,6.58,0,0,0,73.89,15.7ZM64.07,7.76H68.4c2.17,0,3.37,1,3.37,2.87s-1.2,2.82-3.37,2.82H64.07Zm4.87,16.53H64.07v-6h4.79c2.21,0,3.56,1.12,3.56,3.06S71.15,24.29,68.94,24.29Z"/><path d="M99.59,7.76V2.46H83V29.63H99.59V24.32h-10V18.37h8.86V13.26H89.57V7.76Z"/><path d="M182.68,2.46l-7.55,18.81L167.51,2.46H159.7V29.63h6.61V13.3l6.12,16.33h5.33l6.08-16.29V29.63h6.62V2.46Z"/><path d="M211.85,7.76V2.46H195.22V29.63h16.63V24.32h-10V18.37h8.86V13.26h-8.86V7.76Z"/><path d="M58.65,35.46h1.73V51.1H67v1.67H58.65Z"/><path d="M76.18,35.46h1.73V52.77H76.18Z"/><path d="M87.74,52.77l2.47-17.31h.28l7,14.2,7-14.2h.28l2.49,17.31h-1.7l-1.7-12.38L97.74,52.77H97.3L91.11,40.3l-1.7,12.47Z"/><path d="M117.06,35.46h1.73V52.77h-1.73Z"/><path d="M127.69,37.16v-1.7h9.48v1.7h-3.86V52.77h-1.77V37.16Z"/><path d="M146.31,35.46H148V51.1h6.66v1.67h-8.39Z"/><path d="M164.1,35.46H174v1.7h-8.18v5.42h8.11v1.69h-8.11v6.8h8.11v1.7H164.1Z"/><path d="M181.86,49.54l1.47-.88c1,1.91,2.23,2.86,3.59,2.86a3.43,3.43,0,0,0,1.63-.41,2.82,2.82,0,0,0,1.57-2.53,3,3,0,0,0-.59-1.71,14.33,14.33,0,0,0-3-2.77,15.07,15.07,0,0,1-2.7-2.37,4.29,4.29,0,0,1-.91-2.64A4,4,0,0,1,183.5,37,3.84,3.84,0,0,1,185,35.56a4.49,4.49,0,0,1,2.14-.53,4.57,4.57,0,0,1,2.28.6,7.93,7.93,0,0,1,2.25,2.23l-1.41,1.07a6.66,6.66,0,0,0-1.66-1.7,2.82,2.82,0,0,0-1.5-.41,2.37,2.37,0,0,0-1.71.63,2.12,2.12,0,0,0-.67,1.57,2.62,2.62,0,0,0,.24,1.09,4,4,0,0,0,.86,1.15c.22.22,1,.8,2.23,1.73a12.53,12.53,0,0,1,3.08,2.95,4.76,4.76,0,0,1,.84,2.6,4.41,4.41,0,0,1-1.43,3.27,4.78,4.78,0,0,1-3.48,1.39,5.07,5.07,0,0,1-2.85-.84A7.63,7.63,0,0,1,181.86,49.54Z"/><path d="M200.51,49.54l1.47-.88q1.54,2.87,3.59,2.86a3.43,3.43,0,0,0,1.63-.41,2.82,2.82,0,0,0,1.57-2.53,3,3,0,0,0-.59-1.71,14.17,14.17,0,0,0-3-2.77,14.88,14.88,0,0,1-2.69-2.37,4.3,4.3,0,0,1-.92-2.64,4,4,0,0,1,.54-2.06,3.87,3.87,0,0,1,1.53-1.47A4.43,4.43,0,0,1,205.8,35a4.58,4.58,0,0,1,2.29.6,7.93,7.93,0,0,1,2.25,2.23l-1.41,1.07a6.83,6.83,0,0,0-1.66-1.7,2.82,2.82,0,0,0-1.5-.41,2.42,2.42,0,0,0-1.72.63,2.11,2.11,0,0,0-.66,1.57,2.62,2.62,0,0,0,.24,1.09,3.92,3.92,0,0,0,.85,1.15c.23.22,1,.8,2.24,1.73a12.71,12.71,0,0,1,3.08,2.95,4.76,4.76,0,0,1,.84,2.6,4.41,4.41,0,0,1-1.43,3.27,4.8,4.8,0,0,1-3.48,1.39,5.12,5.12,0,0,1-2.86-.84A7.71,7.71,0,0,1,200.51,49.54Z"/><path d="M155.11,15.72a14.38,14.38,0,0,0-14.37-14A14.39,14.39,0,0,0,126.36,16a8.13,8.13,0,0,1-1.84,5.23c-4.77,6-14.74,2.55-14.7-5.22s10.07-11.22,14.79-5.11a16.9,16.9,0,0,1,3.09-5.59c-9-8.26-24.09-1.66-24,10.7-.11,12.25,14.75,18.9,23.8,10.85a14,14,0,0,0,1.88-2,14.19,14.19,0,0,0,1.74,1.81,14.34,14.34,0,0,0,19.75-.55,14.17,14.17,0,0,0,1.45-1.63A14.36,14.36,0,0,0,155.11,15.72Zm-6.09.36a8.12,8.12,0,0,1-2.43,5.84,8.31,8.31,0,0,1-12.18-.54l0,0-.17-.19a7.86,7.86,0,0,1-1.76-4.57,8.54,8.54,0,0,1,0-1.42s0-.06,0-.1a8.28,8.28,0,0,1,16.46.2C149,15.53,149,15.81,149,16.08Z"/><path d="M25.48,49a16.23,16.23,0,0,1-3-5.68h0a8.88,8.88,0,0,1-.85,1,8,8,0,1,1-10.93-11.7c.19-.16.39-.33.59-.48a8,8,0,0,1,4-1.49h0c.21,0,.43,0,.64,0h.35l.41,0h.2l.39,0,.22,0,.37-.05.22,0,.37-.06.22,0,.35-.08.23,0,.34-.09.22-.06.34-.1.21-.07.34-.11.2-.08.34-.13.18-.08.35-.15.15-.07.37-.18.12-.06.39-.21.06,0a14.16,14.16,0,0,0,1.82-1.23h0c.27-.21.53-.44.79-.67a15.83,15.83,0,0,1-1.76-2.6,16.6,16.6,0,0,1-1.29-3.1,7.93,7.93,0,0,1-1.8,1.81A8,8,0,0,1,16,24.57a14,14,0,0,0-8.75,3h0a14.57,14.57,0,0,0-1.62,1.52,14,14,0,0,0-3.72,9.53V52.77H16a14,14,0,0,0,9.54-3.72h0Z"/><path d="M11.26,23.05A8,8,0,1,1,24,16.55h0a14.05,14.05,0,0,0,3,8.75c.22.27.44.53.68.79s.55.57.84.84.51.46.78.67a14,14,0,0,0,8.66,3h.19a14,14,0,0,0,8.66-3,12.88,12.88,0,0,0,1.62-1.51A14.09,14.09,0,0,0,28.52,6.18a16.37,16.37,0,0,1,3,5.69,8,8,0,1,1,6.7,12.7h-.41a7.94,7.94,0,0,1-4.49-1.52A8,8,0,0,1,30,16.56a14,14,0,0,0-3-8.75,14.51,14.51,0,0,0-1.51-1.63A14,14,0,0,0,16,2.46H1.85v14.1A14,14,0,0,0,5.57,26.1,16.14,16.14,0,0,1,11.26,23.05Z"/><path d="M33.36,32.17a15.75,15.75,0,0,1-3.08-1.28A16.39,16.39,0,0,1,31.56,34,8.09,8.09,0,0,1,33.36,32.17Z"/><path d="M42.75,32.17A8,8,0,1,1,30,38.76v-.19a14,14,0,0,0-3-8.66c-.21-.27-.44-.53-.67-.78a17.71,17.71,0,0,1-2.6,1.76,15.75,15.75,0,0,1-3.08,1.28A8,8,0,0,1,22.44,34,7.94,7.94,0,0,1,24,38.46h0v.39h0a14,14,0,0,0,3,8.54A13.75,13.75,0,0,0,28.51,49,14.09,14.09,0,0,0,48.43,29.13,16.23,16.23,0,0,1,42.75,32.17Z"/></svg>