<svg xmlns="http://www.w3.org/2000/svg" viewBox="0 0 2279.52 519.81"><defs><style>.cls-1,.cls-2,.cls-3{fill:#fff;}.cls-2{opacity:0.5;}.cls-3{opacity:0.75;}</style></defs><g id="Ebene_2" data-name="Ebene 2"><g id="Ebene_1-2" data-name="Ebene 1"><path d="M0,0H834A197.43,197.43,0,0,1,1031.4,197.43V519.81a0,0,0,0,1,0,0h-834A197.43,197.43,0,0,1,0,322.38V0A0,0,0,0,1,0,0Z" transform="translate(1031.4 519.81) rotate(-180)"/><path class="cls-1" d="M466.55,468.34c-34.81,0-64.69-12.21-89.38-36.9s-36.89-54.56-36.89-89.37c0-35.08,12.21-64.7,36.89-89.38s54.57-36.9,89.38-36.9,64.7,12.21,89.38,36.9q26.12,26.1,34.3,63.13a124.88,124.88,0,0,1,2.6,26.25,120.7,120.7,0,0,1-2.6,26H405.75A52.34,52.34,0,0,1,458,315.82h77.68a73.55,73.55,0,0,0-16.88-26.24C504.49,275.29,487.08,268,466.55,268s-37.93,7.27-52.22,21.82c-14.29,14.29-21.57,31.7-21.57,52.23S400,380,414.33,394.29s31.7,21.57,52.22,21.57h49.89c15.07,0,27.8,5.45,38.19,16.62a51.12,51.12,0,0,1,14,35.86Z"/><path class="cls-1" d="M837.84,440a50,50,0,0,1-5.72-23.91v-74q0-30.79-21.82-52.23Q788.87,268,758.07,268t-52.22,21.82c-14.29,14.29-21.57,31.7-21.57,52.23s7.28,37.93,21.57,52.48c14.29,14.29,31.7,21.56,52.22,21.56h21.57c21.56,0,37.41,10.4,48.06,31.44a50.56,50.56,0,0,1,4.42,20.79h-74q-63.14,0-102.37-52.23c-15.85-21.82-23.9-46.5-23.9-74,0-35.08,12.21-64.7,36.89-89.38s54.57-36.9,89.38-36.9h6.5a119.71,119.71,0,0,1,13.51,1.56,77.77,77.77,0,0,1,14.55,3.12,91.32,91.32,0,0,1,13.51,4.68,138.73,138.73,0,0,1,25.2,14l.78.52a143.52,143.52,0,0,1,15.33,13c24.68,24.68,36.9,54.3,36.9,89.38V468.34C864.08,468.34,848.49,459,837.84,440Z"/><path class="cls-1" d="M938.65,453a50.64,50.64,0,0,1-15.33-36.9V64.57a52.34,52.34,0,0,1,52.22,52.49V468.34A50.63,50.63,0,0,1,938.65,453Z"/><path d="M1075,169a50.59,50.59,0,0,1,15.33-36.89c10.39-10.13,22.86-15.33,37.15-15.33v17.67A52.34,52.34,0,0,1,1075,186.69Zm0,99a50.61,50.61,0,0,1,15.33-36.9c10.39-10.13,22.86-15.33,37.15-15.33V415.86A52.34,52.34,0,0,1,1075,468.34Z"/><path d="M1203.34,431.44c-24.68-27.28-36.9-56.9-36.9-89.37s12.22-62.1,36.9-89.38c26-24.69,55.86-36.9,89.38-36.9,32.48,0,62.1,12.21,89.38,36.9A125.35,125.35,0,0,1,1413,303.61a51.62,51.62,0,0,1-25.21,6.76c-14.29,0-26.76-5.2-37.41-15.33l-5.46-5.2q-22.61-21.43-52.22-21.82-28.46,0-52.23,21.82c-14.29,15.85-21.56,33.26-21.56,52.23s7.27,36.37,21.56,52.22q23.77,21.82,52.23,21.82,29.61,0,52.22-21.82l5.46-5.2q13.24-12.85,23.38-14c6.76-.78,11.18-1.3,13.51-1.3a52.82,52.82,0,0,1,25.73,6.76,125.35,125.35,0,0,1-30.92,50.92c-27.28,24.69-56.9,36.9-89.38,36.9C1259.2,468.34,1229.32,456.13,1203.34,431.44Z"/><path d="M1452,169a50.63,50.63,0,0,1,15.33-36.89c10.39-10.13,22.86-15.33,37.15-15.33v17.67A52.34,52.34,0,0,1,1452,186.69Zm0,99a50.65,50.65,0,0,1,15.33-36.9c10.39-10.13,22.86-15.33,37.15-15.33V415.86A52.34,52.34,0,0,1,1452,468.34Z"/><path d="M1580.34,431.44c-24.68-24.68-36.89-54.56-36.89-89.37,0-35.08,12.21-64.7,36.89-89.38s54.56-36.9,89.64-36.9c34.82,0,64.44,12.21,89.12,36.9s37.15,54.3,37.15,89.38c0,34.81-12.47,64.69-37.15,89.37s-54.3,36.9-89.12,36.9C1634.9,468.34,1605,456.13,1580.34,431.44ZM1722,394.29q21.83-21.43,21.82-52.22T1722,289.84c-14.3-14.55-31.7-21.82-52-21.82-20.53,0-37.93,7.27-52.48,21.82-14.29,14.29-21.57,31.7-21.57,52.23s7.28,37.93,21.57,52.22c14.55,14.29,32,21.57,52.48,21.57C1690.25,415.86,1707.65,408.58,1722,394.29Z"/><path d="M2050.88,453a46.92,46.92,0,0,1-9.35-13.25c-23.13,19-49.63,28.58-79.77,28.58-35.08,0-65-12.21-89.64-36.9s-36.89-54.56-36.89-89.63V215.53A52.34,52.34,0,0,1,1887.71,268v73.79c0,21,7.28,38.45,21.83,52.74,14.81,14.29,32.73,21.31,54,21.31h.78c20.52-1.3,37.41-9.36,50.92-23.91s20.27-31.7,20.27-51.7V268A52.34,52.34,0,0,1,2088,215.53V468.34A50.79,50.79,0,0,1,2050.88,453Z"/><path d="M2127,468.34a52.34,52.34,0,0,1,52.22-52.23h23.91a23.9,23.9,0,1,0,0-47.8,73.18,73.18,0,0,1-23.91-3.9,75.77,75.77,0,0,1-33.52-22.34c-12.47-14.29-18.7-30.92-18.7-50.15,0-21.05,7.27-39,22.08-53.78s33-22.35,54-22.35h76.38c0,13-4.15,24.43-12.73,34-10.65,12.21-23.9,18.45-39.75,18.45h-23.9a23.77,23.77,0,1,0,0,47.54c23.38,0,42.61,8.84,57.42,26.25,12.73,14.29,19,30.91,19,50.14,0,21.05-7.53,39-22.34,53.78s-33,22.35-54,22.35Z"/><path class="cls-1" d="M301.18,273.58V65.68A52.34,52.34,0,0,0,249,118.16V240.5c-1.14-.86-2.31-1.7-3.48-2.51l-.14-.09a117.44,117.44,0,0,0-10.55-6.55,113.65,113.65,0,0,0-14.65-6.8c-1.41-.54-2.83-1.05-4.27-1.54l-1.21-.4-.52-.17c-.86-.28-1.73-.55-2.6-.8-.49-.14-1-.29-1.46-.42-2.47-.7-5-1.32-7.51-1.86l-.06,0-.44-.08c-.48-.11-1-.21-1.46-.3l-1.95-.37c-1.31-.24-2.63-.46-4-.65-2.66-.4-5.35-.71-8.09-.95q-6-.51-12.25-.52H48.07c0,20.27,9.36,35.86,28.32,46.52a49.92,49.92,0,0,0,23.91,5.71h74.05a77.8,77.8,0,0,1,8.28.42h0c1.13.11,2.26.25,3.37.41.56.07,1.11.16,1.66.26s1.1.19,1.65.3l1.64.34,1.71.39c.64.15,1.26.32,1.89.49l1.56.45,1.7.53c.56.18,1.12.38,1.68.58s1.11.4,1.65.61,1.11.44,1.65.67l1.34.57a68,68,0,0,1,9,4.87,76.62,76.62,0,0,1,13.39,10.93c.75.74,1.47,1.48,2.19,2.24l.08.08a75.7,75.7,0,0,1,5.94,7.12v1.18l2.62,2.62a.66.66,0,0,1,.08.13Q248.4,321,248.39,342.75c0,1.54,0,3.06-.13,4.57q-1.5,27.82-21.69,47.66c-14.29,14.29-31.7,21.56-52.22,21.56s-37.94-7.27-52.49-21.56c-14.29-14.3-21.56-31.7-21.56-52.23V321.19c0-21.57-10.4-37.42-31.44-48.07a50.56,50.56,0,0,0-20.79-4.42v74.05q0,63.13,52.23,102.37C122.12,461,146.8,469,174.35,469c22.31,0,42.4-4.95,60.43-14.89v0A116.94,116.94,0,0,0,249,445l.06,0a136,136,0,0,0,14.59-12.66l.18-.18a138.48,138.48,0,0,0,10.58-11.84l0-.05A119.15,119.15,0,0,0,295,381.5a120.62,120.62,0,0,0,3.85-16.23l2.33,2.33.06.06v-.05l-.06-.06-2.32-2.32a136.1,136.1,0,0,0,1.81-22.46v-4l.51,1.4.06.17V273.64Z"/><path class="cls-2" d="M135.85,202.26H174.4q3.53,0,7,.16l-15.85-44.3L105.28,97.85l0,0a52.32,52.32,0,0,0,.18,74Z"/><path class="cls-3" d="M177.77,150.16,189,181.49l0,.07,8,22.35H197a136.48,136.48,0,0,1,18.36,4h0a126.56,126.56,0,0,1,13,4.56q3.22,1.32,6.37,2.83V154.52L197.55,50.37l0,0A50.62,50.62,0,0,0,168,77.19,50.8,50.8,0,0,0,166,117.34Z"/></g></g></svg>