<svg id="Ebene_1" data-name="Ebene 1" xmlns="http://www.w3.org/2000/svg" viewBox="0 0 2551.18 850.39"><path d="M1967.53,370.74h63.55c.54,6.95,1,13.37,1.72,22.19,16.26-14,33.47-21.77,53-24,54.77-6.34,90.93,18.67,91.21,74.76.19,38.37,0,76.74,0,115.94H2110c-.28-4.93-.77-9.71-.79-14.49-.07-29.34.11-58.68-.09-88-.18-26-9.35-36.22-31.61-35.9-24.71.36-43,16.42-43.07,37.86-.06,28.93,0,57.86-.05,86.78,0,4.43-.4,8.86-.65,13.92h-66.18Z"/><path d="M1830.33,563.25c-34.91-1.35-63.16-7.18-87.12-26.62-46.75-37.93-45.74-130.93,28.81-159.25,33.2-12.62,67-13.17,100.62-2.12,43.23,14.2,67.85,49.7,66.12,93.86s-29,77.64-73.16,88.48C1852.47,560.83,1838.83,561.93,1830.33,563.25Zm-4.57-149.62c-34.12-.15-54.29,19-54.29,51.62,0,31.6,20.52,51.45,53.39,51.64,33.2.19,54.58-20.19,54.49-51.94S1858.93,413.78,1825.76,413.63Z"/><path d="M1234.54,370.76h46.37v13.49q0,47.75,0,95.49c0,36.19,20,51.9,55.61,43a79.29,79.29,0,0,0,22.54-9.8c13.19-8.26,21.09-19,20.23-36.54-1.5-30.52-.42-61.16-.42-91.75V370.76h47.54V559.63h-45c-.37-8.42-.73-16.47-1.17-26.16-3.23,2.2-5.55,3.46-7.5,5.15-29.26,25.3-62.76,30-98.48,18.4-22.81-7.41-37.86-25.4-39-48.5C1232.93,462.93,1234.54,417.14,1234.54,370.76Z"/><path d="M1532,311.27v58.41h45.78c0,11.91.5,22.5-.4,33-.19,2.22-5.38,5.53-8.43,5.71-11.5.67-23.06.27-36.8.27v18.76c0,20.25-.05,40.5,0,60.76.1,30,9.28,38.33,39.37,35.76,4.81-.41,9.55-1.48,16.15-2.54,0,10.57.48,20.38-.34,30.08-.21,2.48-4.17,5.9-7,6.71-19.36,5.51-39,7-58.49.69-23.24-7.55-35.09-24.82-36.5-48.08-1.67-27.6-1-55.35-1.29-83-.07-5.72,0-11.45,0-18.53h-27.55V370.43h27.31V311.27Z"/><path d="M981.4,370.74H1009v189H982.67c-.41-9-.82-18.19-1.32-29.11-3.24,2.47-5.51,3.85-7.35,5.66-28.79,28.33-63,32.73-99.61,20.51-28.23-9.43-42-32.14-43-60.76-1.39-41.23-.36-82.54-.36-124.85h28.47v12.91c0,32.64.93,65.31-.21,97.9-1.81,51.76,29.4,62.84,73.21,55.38,19.7-3.35,34.34-15.8,45.08-32.25,2.68-4.1,3.58-10,3.63-15.06.3-35.11.16-70.22.16-105.34Z"/><path d="M777.45,646.69H760.08V524.17l-2.44-1.79c-19.28,28.4-47.82,38.42-79.39,40.14-32.43,1.76-61.26-8-82.9-33.69-31.75-37.69-29.07-99.65,6-133.73,22.83-22.15,51.07-29.6,82.07-26.79,30.46,2.75,56.17,15.12,73.82,41.95l2.66-1.49v-38h17.51ZM759.68,465.56c0-51.08-31.32-81.62-83.8-81.72-49.67-.09-83.81,32.78-83.9,80.79-.08,48.5,33.64,82,82.68,82C729,546.78,759.68,517.54,759.68,465.56Z"/><path d="M534,470.92H354.66c0,24.23,6.7,45.1,26.57,57.44A123.46,123.46,0,0,0,428,545.55a167,167,0,0,0,83.38-9.16c3.77,10.92,1.51,16.88-10.47,19.39-29.31,6.14-58.62,10-88.37,4.08-53-10.6-81.15-51.65-75-108,7-64.56,55.17-89.06,111.29-83.31,38.38,3.94,67.83,21.18,79.19,60.38C531.68,441.74,531.9,455.51,534,470.92Zm-19.42-17.08c.61-29.76-13.39-53.62-38.63-63.25-27.05-10.33-55-10.41-82.08.12-25.35,9.86-41.89,38.43-38,63.13Z"/><path d="M1678.37,559.75h-56.62v-189h56.62Z"/><path d="M1150.39,268.71h36v291h-36Z"/><path d="M1094.25,559.81h-27V370.71h27Z"/><path d="M1681.58,312.48c.12,18.17-14,32.32-32,32.1a31.45,31.45,0,0,1-31.48-31.52,31.76,31.76,0,1,1,63.51-.58Z"/><path d="M2254.2,531a29.44,29.44,0,0,1-28.91,29.35c-15.83.12-29-13.18-28.94-29.27s13.29-29.67,28.83-29.51C2240.89,501.78,2254.1,515.18,2254.2,531Z"/><path d="M1098.58,310.92a18.62,18.62,0,0,1-17.45,18.72c-9.51.42-18.25-7.91-18.52-17.64s7.82-18.46,17.44-18.73S1098.32,301.3,1098.58,310.92Z"/></svg>