<?xml version="1.0" encoding="utf-8"?>
<!-- Generator: Adobe Illustrator 23.0.1, SVG Export Plug-In . SVG Version: 6.00 Build 0)  -->
<svg version="1.1" id="Layer_1" xmlns="http://www.w3.org/2000/svg" xmlns:xlink="http://www.w3.org/1999/xlink" x="0px" y="0px"
	 viewBox="0 0 435.3 184" style="enable-background:new 0 0 435.3 184;" xml:space="preserve">
<title>TheAlpinist_premium_spirits_1c</title>
<g id="Ebene_5">
	<path d="M44.3,111c-3.4-8-6.8-16.3-11.6-27.3C27.7,95,24,103.2,20.5,111l-2.8,6.4c-1.3,3-2.9,6.6-4.5,10.1h6c0.6,0,1,0.4,1,1v4.6
		c0,0.6-0.4,1-1,1H1c-0.6,0-1-0.4-1-1v-4.6c0-0.6,0.4-1,1-1h4.6l14.1-31.2l6.1-13.1H20c-0.6,0-1-0.4-1-1v-4.5c0-0.6,0.4-1,1-1h16.7
		l22.4,50.8h4.6c0.6,0,1,0.4,1,1v4.6c0,0.6-0.4,1-1,1H31.2c-0.6,0-1-0.4-1-1v-4.6c0-0.6,0.4-1,1-1h20.3c-1.6-3.5-3-7-4.4-10.1
		L44.3,111z"/>
	<path d="M113.7,127.6l0.2-7.9c0-0.5,0.5-1,1-0.9h4.4c0.6,0,1,0.4,1,1v13.4c0,0.6-0.4,1-1,1H76.2c-0.6,0-1-0.4-1-1v-4.5
		c0-0.6,0.4-1,1-1h5.8V83.4h-6.1c-0.6,0-1-0.4-1-1v-4.6c0-0.6,0.4-1,1-1H95c0.6,0,1,0.4,1,1v4.6c0,0.6-0.4,1-1,1h-5.8v44.2H113.7z"
		/>
	<path d="M143.8,127.7h6.2c0.6,0,1,0.4,1,1v4.5c0,0.6-0.4,1-1,1h-19.2c-0.6,0-1-0.4-1-1v-4.5c0-0.6,0.4-1,1-1h5.9V83.4h-6.2
		c-0.6,0-1-0.4-1-1v-4.6c0-0.6,0.4-1,1-1h31.5c26.4,0,26.4,37.4,0,37.5h-18.3V127.7z M162.1,83.4h-18.3V108h18.3
		C179,108,179,83.4,162.1,83.4z"/>
	<path d="M191.4,133.1v-4.6c0-0.6,0.4-1,1-1h6.3V83.4h-6.2c-0.6,0-1-0.4-1-1v-4.6c0-0.6,0.4-1,1-1h19.5c0.6,0,1,0.4,1,1v4.6
		c0,0.6-0.4,1-1,1h-6.2v44.2h6.4c0.6,0,1,0.4,1,1v4.6c0,0.6-0.4,1-1,1h-19.9C191.8,134.1,191.4,133.7,191.4,133.1z"/>
	<path d="M240.2,127.7h6.2c0.6,0,1,0.4,1,1v4.5c0,0.6-0.4,1-1,1h-19.2c-0.6,0-1-0.4-1-1v-4.5c0-0.6,0.4-1,1-1h5.9V83.4h-6.2
		c-0.6,0-1-0.4-1-1v-4.6c0-0.6,0.4-1,1-1h10.8c0.3,0,0.6,0.1,0.8,0.4l34.8,43.6V83.4h-6.2c-0.6,0-1-0.4-1-1v-4.6c0-0.6,0.4-1,1-1
		h19.1c0.6,0,1,0.4,1,1v4.6c0,0.6-0.4,1-1,1h-5.9v49.8c0,0.6-0.4,1-1,1h-3.5c-0.3,0-0.6-0.1-0.8-0.4l-34.9-43.4V127.7z"/>
	<path d="M299.9,133.1v-4.6c0-0.6,0.4-1,1-1h6.3V83.4h-6.2c-0.6,0-1-0.4-1-1v-4.6c0-0.6,0.4-1,1-1h19.5c0.6,0,1,0.4,1,1v4.6
		c0,0.6-0.4,1-1,1h-6.2v44.2h6.4c0.6,0,1,0.4,1,1v4.6c0,0.6-0.4,1-1,1h-19.9C300.4,134.2,299.9,133.7,299.9,133.1
		C299.9,133.2,299.9,133.2,299.9,133.1z"/>
	<path d="M375.3,82.2c0,3.8-0.1,6.7-0.1,10.4c0,0.6-0.4,1-1,1h-4.4c-0.5,0-1-0.4-1-0.9l-0.3-7.3C364.7,83,359.4,82,355,82
		c-7.2,0-14.7,2.9-14.7,9.7c0,6.4,6.8,8.2,15.1,9.6c11.6,1.8,23.2,4.3,23.2,16.9c-0.1,13.3-12.8,17.1-23.7,17.1
		c-8.3,0-15.2-2.1-21.6-7.8v-10.4c0-0.6,0.4-1,1-1h4.6c0.5,0,1,0.4,1,0.9l0.3,7.1c4.4,2.9,9.6,4.5,14.9,4.5c7,0,16.5-2,16.5-10.5
		c0.1-7.9-11-9.4-16.9-10.3c-11-1.7-21.3-4.5-21.3-16.3c-0.2-11.9,11.6-15.9,21.5-15.9C362.5,75.7,369.2,77.2,375.3,82.2z"/>
	<path d="M394.5,83.2l-0.2,7.9c0,0.5-0.5,0.9-1,0.9h-4.4c-0.6,0-1-0.4-1-1V77.8c0-0.6,0.4-1,1-1h45.5c0.6,0,1,0.4,1,1v13.3
		c0,0.6-0.4,1-1,1H430c-0.5,0-1-0.4-1-0.9l-0.3-7.9h-13.5v44.3h6.4c0.6,0,1,0.4,1,1v4.6c0,0.6-0.4,1-1,1h-19.9c-0.6,0-1-0.4-1-1
		v-4.6c0-0.6,0.4-1,1-1h6.5V83.2H394.5z"/>
	<path d="M202.2,52c-0.4,0-0.7-0.1-1-0.3c-0.2-0.2-0.2-0.4-0.2-0.7l0.2-3.6c0-0.2,0.1-0.4,0.2-0.6l0.4-4.8
		c0.7-7.5,1.4-15.3,1.6-22.9c-5.2,1.3-10.5,2-15.9,2.2l0,0c-4.3,0-7.2-0.8-8.6-2.5c-0.9-1.1-1.2-2.6-0.9-4c0.9-5.2,8.5-9,12.2-10.8
		l0.4-0.2c2.4-1.2,6-3,9.1-3c1.7-0.1,3.3,0.6,4.4,1.8c2.8,3.2,2.9,9,2.6,13.7c2.2-0.5,4.4-1.1,6.5-1.6l4-1
		c8.6-2.1,17.1-4.4,25.8-6.8c0.2,0,0.4-0.1,0.6-0.1c0.5-0.1,1.1,0.3,1.1,0.8c0,0,0,0,0,0c0.1,0.5-0.3,1.1-1.2,1.3l-0.8,0.2
		c-11.8,3.2-24,6.5-36.2,9.1l-0.2,1.9c-0.1,1.2-0.2,2.2-0.2,3.2c-0.5,9.1-1.3,18.4-2,27.3C204,51.5,203,52,202.2,52z M198.8,3.2
		c-2.6,0-5.9,1.8-7.9,2.9l-0.5,0.3c-2.4,1.3-5.6,3-7.2,5.1s-2.2,3.8-1.6,5.1c1.1,2.3,5.7,2.5,7.6,2.5c0.4,0,0.9,0,1.2,0
		c4.4-0.3,8.7-0.9,13-1.9c0-1.3,0-2.5,0-3.8v-0.3c0-2.5-0.1-7.2-2-9C200.6,3.5,199.7,3.1,198.8,3.2L198.8,3.2z"/>
	<path d="M199.7,1.1c1.6-0.1,3.1,0.6,4.2,1.7c2.8,3.1,2.9,8.8,2.5,13.9c-0.9,0.2-1.8,0.4-2.7,0.6c0-1.3,0-2.7,0-4
		c0-2.4-0.1-7.5-2.1-9.4c-0.7-0.7-1.7-1-2.7-1c-2.9,0-6.6,2.2-8.6,3.2c-2.4,1.3-5.6,3-7.3,5.2c-5.2,6.6,1.4,8,6.2,8
		c0.4,0,0.9,0,1.3,0c4.5-0.3,8.9-0.9,13.2-1.9c0,0.5,0,1,0,1.5c-3.8,0.8-10.5,2.2-16.2,2.2s-10.1-1.4-9.3-6.3s8-8.6,12.1-10.6
		C192.7,3,196.4,1.1,199.7,1.1 M243.5,7.2c1.1,0,1.3,1.2-0.1,1.6c-12.3,3.3-24.7,6.7-37.2,9.4l0.1-1.5c3.6-0.8,7.3-1.8,10.8-2.7
		c8.6-2.1,17.2-4.4,25.8-6.8C243.2,7.3,243.4,7.2,243.5,7.2 M206.3,18.2c-0.2,2-0.4,3.8-0.4,5.2c-0.5,9.1-1.3,18.2-2,27.3
		c0.1-1.2,0.1-2.4,0.2-3.6c0-0.5-0.4-0.7-1-0.7c-0.6,0-1.1,0.2-1.5,0.6c0.9-9.3,1.9-18.8,2.1-28.2l2-0.4L206.3,18.2 M201.5,47
		c-0.1,1.3-0.2,2.7-0.3,4l2.6-0.2c0,0.6-0.9,1-1.6,1c-0.5,0-1-0.2-1-0.7l0.2-3.6C201.4,47.3,201.4,47.2,201.5,47 M199.6,0.6
		L199.6,0.6c-3.2,0-6.8,1.8-9.3,3L190,3.7c-3.7,1.8-11.4,5.6-12.3,11c-0.4,1.5,0,3.1,0.9,4.3c1.4,1.7,4.4,2.6,8.8,2.6
		c5.3-0.2,10.5-0.9,15.6-2.1c-0.2,7.5-0.9,15.1-1.6,22.5c-0.2,1.6-0.3,3.2-0.5,4.8c-0.1,0.2-0.2,0.4-0.2,0.6l-0.2,3.1l0,0V51
		c0,0.3,0.1,0.6,0.3,0.9c0.3,0.3,0.7,0.5,1.2,0.4c1,0,2.1-0.6,2.2-1.5l0.1-0.6l0,0c0.7-8.8,1.5-17.8,2-26.7c0-0.9,0.1-2,0.3-3.2
		c0-0.5,0.1-1.1,0.1-1.7c12.1-2.6,24.2-5.9,35.9-9.1l0.9-0.2c1.1-0.3,1.5-1,1.4-1.6c-0.1-0.7-0.7-1.1-1.4-1.1c-0.2,0-0.4,0-0.6,0.1
		c-8.7,2.4-17.3,4.7-25.8,6.8l-4,1c-2,0.5-4.1,1-6.2,1.5c0.3-4.8,0.1-10.4-2.7-13.6C203.1,1.2,201.4,0.5,199.6,0.6L199.6,0.6z
		 M189.1,18.8c-3.9,0-6.6-0.9-7.4-2.4c-0.6-1.1,0-2.7,1.6-4.8s4.8-3.7,7-5l0.6-0.3c2-1.1,5.2-2.8,7.8-2.8c0.9,0,1.7,0.2,2.4,0.8
		c1.8,1.7,1.9,6.5,2,8.8v0.3c0,1.2,0,2.4,0,3.6c-4.2,0.9-8.5,1.6-12.8,1.8C189.9,18.8,189.4,18.8,189.1,18.8L189.1,18.8z
		 M204.2,17.8l1.6-0.4v0.4h-0.2l-1.1,0.2l-0.2,0.1C204.2,18,204.2,17.9,204.2,17.8L204.2,17.8z M202.1,47.3c0.3-0.2,0.6-0.3,1-0.3
		c0.1,0,0.3,0,0.4,0.1l-0.1,1.9l-0.1,1.3l-0.9,0.1l-0.7,0.1L202.1,47.3L202.1,47.3z"/>
	<path d="M226.6,48.7c-3.5,0-4.6-4.7-5.5-8.9c-0.1-0.5-0.2-1-0.3-1.4c-1.3,3.1-2.8,5.9-4.8,6.3c-0.3,0.1-0.5,0.1-0.8,0.1
		c-2,0-3.3-1.9-3.9-5.8c-0.4,0.4-0.7,0.9-1.1,1.3c-0.4,0.4-0.9,0.6-1.5,0.6l0,0c-0.5,0.1-1.1-0.2-1.4-0.7c-0.1-0.4,0-0.8,0.3-1
		c1.2-1.4,2.3-2.8,3.3-4.3c-0.4-5.2-0.3-10.3,0.1-15.5c0.2-3.4,0.7-6.9,1.2-10.3c0.1-0.5,0.1-1,0.2-1.6c0.1-1.7,0.5-3.4,1.3-5
		c0.7-1.3,1.9-2.2,3.4-2.3c0.6,0,1.2,0.2,1.7,0.6c2.5,2,2.1,8.5,2,12v0.7c-0.3,7.9-2.7,15.5-7,22.2c0,1.7,0.4,3.3,1.2,4.8
		c0.6,1,0.8,1.1,0.9,1.1c0.2-0.3,0.3-0.6,0.4-0.9c0.1-0.5,0.3-0.9,0.5-1.4l2.8-5.5c0.4-0.6,1-1,1.8-1c0.4,0,0.8,0.2,1.1,0.5
		c1.1,1.7,1.7,3.6,1.8,5.6c0.1,1.7,0.6,3.3,1.4,4.8c0.6,1,1.2,1.4,1.8,1.4c1.4,0,2.8-2.8,3.5-5.2c-2.2-2.9-2.1-7,0.4-9.8
		c0.4-0.4,1-0.7,1.6-0.7c0.5-0.1,1.1,0.3,1.2,0.8c0.6,3,0.7,6,0.2,9c2,1.7,4.4,2.8,7,3c0.4,0,0.9,0,1.3,0c2.7-0.1,5.3-0.5,7.9-1.1
		c1.9-0.4,3.9-0.8,5.9-1l0,0c1,0,1.4,0.5,1.4,0.9c0,0.8-0.7,1.5-1.6,1.6c-2,0.2-4,0.6-6,1c-2.8,0.6-5.7,1-8.6,1.1
		c-2.4,0.1-4.8-0.5-6.9-1.5c-0.4-0.2-0.9-0.5-1.2-0.7c-1.1,2.9-2.8,4.8-5,5.6C227.7,48.6,227.1,48.7,226.6,48.7z M216.8,3.8
		c-0.4,0.6-0.6,1.2-0.8,1.9c-2.2,6-2.1,14.1-2.1,20.6v1.5c0,0.6,0,1.2,0,1.9c1.3-2.9,2.3-6,2.9-9.1c0.6-2.9,0.9-5.9,0.9-8.8
		c0-1.9-0.2-3.8-0.5-5.7c0-0.3-0.1-0.7-0.1-1C216.9,4.7,216.8,4.2,216.8,3.8L216.8,3.8z"/>
	<path d="M217,0.5c0.5,0,1.1,0.2,1.5,0.6c2.5,2.1,2,9.5,1.9,12.6c-0.3,7.8-2.7,15.4-7,22c-0.1-1.6,0-3.2,0-4.7
		c1.6-3.3,2.8-6.8,3.5-10.4c0.6-2.9,0.9-5.9,0.9-8.9c0-1.9-0.2-3.9-0.5-5.8c-0.2-1.1-0.2-2.5-0.5-2.5s-0.5,0.6-1.1,2.2
		c-2.3,6.6-2.1,15.4-2.1,22.2c0,0.9,0,2-0.1,3.1c-0.7,1.4-1.5,2.8-2.3,4.1c-0.3-5.2-0.3-10.4,0.1-15.6c0.3-3.4,0.7-6.9,1.2-10.2
		c0.3-2.1,0.4-4.7,1.5-6.5C214.5,1.5,215.7,0.7,217,0.5 M232.7,29.9c0.4-0.1,0.8,0.2,0.9,0.6c0.6,2.9,0.7,6,0.2,8.9
		c-2.1-2.2-3-5.1-0.4-8.2H231c0.7,2.5,0.7,5.1,0.3,7.6c-0.1,0.4-0.2,0.8-0.4,1.4c-2.2-2.9-2.1-6.9,0.3-9.7
		C231.6,30.2,232.1,30,232.7,29.9 M221.1,33.3c0.3,0,0.7,0.1,0.9,0.4c2.3,3.2,1.2,7.3,3.2,10.4c0.7,1.1,1.4,1.6,2,1.6
		c1.7,0,3-3.2,3.7-5.4c0.6,0.8,1.3,1.6,2.1,2.2c-0.9,2.7-2.5,4.9-5,5.8c-0.5,0.2-1,0.3-1.5,0.3c-4,0-4.7-6.7-5.8-10.9
		c0.5-1.3,1-2.4,1.3-3.2l-2.4,0.4c0.5,0.9,0.9,1.8,1.1,2.8c-1.2,2.9-2.8,6.4-5,7c-0.2,0.1-0.5,0.1-0.7,0.1c-2.6,0-3.4-3.8-3.7-6.1
		c0.7-0.9,1.4-1.8,2-2.8c0,1.8,0.4,3.5,1.2,5.1c0.5,0.9,0.9,1.2,1.1,1.2c0.5,0,0.5-1.3,1.1-2.4l2.8-5.5
		C219.9,33.6,220.4,33.3,221.1,33.3 M211,35.2c0.1,0.9,0.1,1.7,0.2,2.6c0,0.2,0,0.5,0.1,0.8c-0.5,0.6-1,1.2-1.5,1.8
		c-0.3,0.3-0.8,0.5-1.2,0.5c-0.9,0-1.6-0.5-0.9-1.3C208.9,38.2,210,36.7,211,35.2 M233.8,39.6c2,1.9,4.5,3.1,7.2,3.3
		c0.4,0,0.9,0,1.3,0c4.6,0,9.2-1.6,13.8-2h0.2c1.5,0,1,1.8-0.4,1.9c-4.6,0.4-9.7,2-14.5,2c-2.4,0.1-4.7-0.5-6.8-1.5
		c-0.5-0.3-1-0.6-1.5-0.9C233.4,41.5,233.6,40.5,233.8,39.6 M217,0c-1.5,0.2-2.9,1.1-3.6,2.5c-0.8,1.6-1.2,3.4-1.3,5.2
		c-0.1,0.5-0.1,1-0.2,1.5c-0.5,3.4-1,6.9-1.2,10.3c-0.4,5.2-0.5,10.3-0.1,15.5c-1,1.5-2,2.9-3.2,4.2c-0.4,0.3-0.5,0.9-0.3,1.3
		c0.3,0.6,1,0.9,1.6,0.8c0.6,0,1.2-0.2,1.6-0.6c0.3-0.3,0.5-0.6,0.8-0.9c0.6,3.6,2,5.4,4,5.4c0.3,0,0.6,0,0.8-0.1
		c2-0.5,3.4-2.9,4.7-5.8l0.1,0.7c0.9,4,2,9.1,5.8,9.1c0.6,0,1.2-0.1,1.7-0.3c2.2-0.8,4-2.7,5.1-5.5c0.3,0.2,0.7,0.4,1,0.6
		c2.2,1.1,4.6,1.6,7.1,1.5c2.9-0.1,5.8-0.5,8.6-1.1c2.1-0.4,4-0.8,5.9-0.9c1,0,1.8-0.8,1.8-1.8c0-0.7-0.7-1.2-1.4-1.2
		c0,0-0.1,0-0.1,0H256c-2,0.2-4,0.6-5.9,1c-2.6,0.6-5.2,1-7.8,1.1c-0.4,0-0.9,0-1.3,0c-2.5-0.2-4.8-1.3-6.7-3
		c0.5-2.9,0.4-5.9-0.2-8.8c-0.2-0.6-0.8-1.1-1.5-1c-0.7,0-1.4,0.3-1.8,0.8c-2.5,2.9-2.6,7-0.4,10.1c-0.9,2.9-2.1,4.8-3.1,4.8
		c-0.6,0-1.2-0.7-1.6-1.3c-0.8-1.4-1.2-3-1.3-4.7c-0.1-2.1-0.8-4-1.9-5.8c-0.3-0.4-0.8-0.7-1.3-0.6l0,0c-0.8,0-1.6,0.4-2,1.1
		l-2.8,5.5c-0.2,0.5-0.4,0.9-0.6,1.4c-0.1,0.2-0.1,0.4-0.2,0.6c-0.2-0.3-0.4-0.5-0.6-0.8c-0.7-1.4-1.1-3-1.1-4.6
		c4.3-6.6,6.7-14.3,7-22.2V13c0.2-3.5,0.5-10.1-2.1-12.2C218.4,0.3,217.8,0.1,217,0L217,0z M214,28.4c0-0.2,0-0.3,0-0.5v-1.5
		c0-6.5,0-14.5,2.1-20.5c0.2-0.5,0.3-0.9,0.5-1.2c0,0.2,0,0.3,0.1,0.4c0,0.3,0.1,0.7,0.1,1c0.3,1.9,0.5,3.8,0.5,5.7
		c0,2.9-0.3,5.9-0.8,8.8C215.9,23.2,215.1,25.9,214,28.4L214,28.4z M231.9,32.7c0-0.3-0.1-0.6-0.2-0.9h0.7
		C232.2,32.1,232,32.4,231.9,32.7L231.9,32.7z M211.6,35.3c0.4-0.6,0.8-1.3,1.2-2c0,0.7,0,1.5,0,2.3c-0.4,0.5-0.7,1-1.1,1.5
		C211.7,36.4,211.7,35.8,211.6,35.3L211.6,35.3z M220.5,35.3l0.5-0.1h0.2c-0.1,0.3-0.2,0.6-0.4,0.9
		C220.7,35.8,220.6,35.5,220.5,35.3L220.5,35.3z M231.5,40.2c0.1-0.4,0.2-0.8,0.3-1.2s0.1-0.7,0.2-1c0.3,0.6,0.7,1.2,1.2,1.7
		c-0.1,0.6-0.3,1.3-0.4,1.8C232.3,41.1,231.9,40.7,231.5,40.2L231.5,40.2z"/>
	<path d="M248.3,7.9c-0.5,0.1-1.1-0.2-1.3-0.8c-0.2-0.7,0.5-1.3,1.2-1.5l2-0.6c0.2-0.1,0.4-0.1,0.6-0.1c0.5-0.1,1.1,0.2,1.3,0.8
		c0.2,0.7-0.5,1.3-1.2,1.5l-2,0.6C248.7,7.8,248.5,7.9,248.3,7.9z"/>
	<path d="M250.8,5.2c0.4,0,0.9,0.2,1,0.6c0.2,0.6-0.6,1.1-1.1,1.2l-2,0.6c-0.2,0-0.3,0.1-0.5,0.1c-0.4,0-0.9-0.1-1-0.6
		c-0.2-0.6,0.6-1,1.1-1.2l2-0.6C250.5,5.2,250.7,5.2,250.8,5.2 M250.8,4.7c-0.2,0-0.4,0-0.6,0.1l-2,0.6c-0.9,0.3-1.7,0.9-1.4,1.8
		c0.2,0.7,0.8,1.1,1.5,1c0.2,0,0.4,0,0.6-0.1l1.6-0.5l0.4-0.1c0.9-0.3,1.7-0.9,1.4-1.8C252.1,5,251.5,4.6,250.8,4.7L250.8,4.7z"/>
	<path d="M83.2,181.6h1.9v-11.3h-1.9v-2.2h7.5c0.9,0,1.8,0.1,2.6,0.4c1.8,0.8,2.9,2.7,2.8,4.6c0.1,2.1-1.1,4-3,4.8
		c-0.8,0.2-1.6,0.3-2.4,0.3h-2.8v3.4h1.9v2.1h-6.6L83.2,181.6z M90.4,175.9c0.5,0,1.1-0.1,1.6-0.3c1.3-1,1.6-2.8,0.7-4.2
		c-0.2-0.2-0.3-0.4-0.6-0.6c-0.5-0.3-1.1-0.4-1.7-0.4H88v5.5H90.4z"/>
	<path d="M101.9,181.6h1.9v-11.3h-1.9v-2.2h6.9c1,0,2,0.1,3,0.3c1.8,0.6,3,2.3,2.9,4.2c0.1,1.9-1.1,3.7-2.9,4.3l0,0
		c0.3,0.2,0.6,0.5,0.8,0.8l1.8,3.3c0.2,0.4,0.6,0.6,1.1,0.5h0.5v2.1H114c-1.3,0-1.7-0.3-2.2-1.2l-2.2-4c-0.3-0.6-0.6-0.8-1.5-0.8
		h-1.4v3.8h1.8v2.1h-6.6L101.9,181.6z M109.2,175.5c1.3,0.1,2.4-0.8,2.5-2.1c0-0.2,0-0.3,0-0.5c0.1-0.9-0.4-1.8-1.2-2.1
		c-0.6-0.2-1.2-0.3-1.8-0.3h-2.1v5L109.2,175.5z"/>
	<path d="M122,181.6h1.9v-11.3H122v-2.2h11.6v4h-2.5v-1.7h-4.4v4.3h5.1v2.3h-5.1v4.4h4.7v-1.8h2.5v4.1H122V181.6z"/>
	<path d="M140.1,181.6h1.8l0.9-11.3H141v-2.2h5.1l3.5,8.8c0.1,0.4,0.3,0.9,0.4,1.3l0,0c0.1-0.4,0.2-0.9,0.4-1.3l3.4-8.8h5.1v2.2H157
		l0.9,11.3h1.9v2.1h-6.3v-2.1h1.7l-0.6-7.9c0-0.5,0-1,0.1-1.4h-0.1c-0.1,0.5-0.2,0.9-0.4,1.4l-3,7.2h-2.5l-3-7.2
		c-0.2-0.5-0.3-0.9-0.4-1.4h-0.1c0.1,0.5,0.1,1,0.1,1.4l-0.6,7.9h1.8v2.1h-6.4L140.1,181.6z"/>
	<path d="M166,181.6h1.9v-11.3H166v-2.2h6.6v2.2h-1.9v11.3h1.9v2.1H166V181.6z"/>
	<path d="M180.6,170.4h-1.9v-2.2h6.6v2.2h-1.9v7.6c0,0.8,0.2,1.5,0.5,2.2c0.7,1,1.8,1.5,3,1.4c1.2,0.1,2.3-0.5,2.9-1.4
		c0.4-0.7,0.6-1.4,0.5-2.2v-7.6h-1.9v-2.2h6.6v2.2h-1.9v7.6c0,1.4-0.4,2.8-1.1,3.9c-1.3,1.5-3.2,2.3-5.2,2.2c-2,0.1-3.9-0.7-5.2-2.2
		c-0.8-1.1-1.2-2.5-1.2-3.9L180.6,170.4z"/>
	<path d="M200.8,181.6h1.9l0.9-11.3h-1.9v-2.2h5.1l3.5,8.8c0.1,0.4,0.3,0.9,0.4,1.3h0c0.1-0.4,0.2-0.9,0.4-1.3l3.5-8.8h5.1v2.2h-1.9
		l0.9,11.3h1.9v2.1H214v-2.1h1.7l-0.6-7.9c0-0.5,0-1,0.1-1.4h-0.1c-0.1,0.5-0.2,0.9-0.4,1.4l-3,7.2h-2.4l-3-7.2
		c-0.2-0.5-0.3-0.9-0.4-1.4h-0.1c0.1,0.5,0.1,1,0.1,1.4l-0.6,7.9h1.8v2.1h-6.4L200.8,181.6z"/>
	<path d="M239.2,178.7v1.2c0,1,1.3,1.6,2.8,1.6s2.7-0.7,2.7-1.9c0-1.6-1.8-2.1-3.6-2.8c-2.1-0.8-4.1-1.7-4.1-4.5
		c0-3.1,2.5-4.4,5.2-4.4c2.5,0,5,0.9,5,2.8v2h-2.6v-1c0-0.8-1.2-1.2-2.3-1.2s-2.3,0.5-2.3,1.7c0,1.4,1.5,1.9,3.1,2.6
		c2.3,0.8,4.7,1.8,4.7,4.7c0,3.2-2.7,4.7-5.6,4.7c-2.6,0-5.4-1.2-5.4-3.5v-1.8L239.2,178.7z"/>
	<path d="M253.9,181.6h1.9v-11.3h-1.9v-2.2h7.5c0.9,0,1.8,0.1,2.6,0.4c1.8,0.8,2.9,2.7,2.8,4.6c0.1,2.1-1.1,4-3,4.8
		c-0.8,0.2-1.6,0.3-2.4,0.3h-2.8v3.4h1.9v2.1h-6.6L253.9,181.6z M261,175.9c0.5,0,1.1-0.1,1.6-0.3c1.3-1,1.6-2.8,0.7-4.2
		c-0.2-0.2-0.3-0.4-0.6-0.6c-0.5-0.3-1.1-0.4-1.7-0.4h-2.4v5.5H261z"/>
	<path d="M272.6,181.6h1.8v-11.3h-1.9v-2.2h6.6v2.2h-1.9v11.3h1.9v2.1h-6.6L272.6,181.6z"/>
	<path d="M285.5,181.6h1.9v-11.3h-1.9v-2.2h6.9c1,0,2,0.1,3,0.3c1.8,0.6,3,2.3,2.9,4.2c0.1,1.9-1.1,3.7-3,4.3l0,0
		c0.3,0.2,0.6,0.5,0.8,0.8l1.8,3.3c0.2,0.4,0.6,0.6,1.1,0.5h0.5v2.1h-1.8c-1.3,0-1.7-0.3-2.2-1.2l-2.2-4c-0.3-0.6-0.6-0.8-1.5-0.8
		h-1.4v3.8h1.8v2.1h-6.5L285.5,181.6z M292.9,175.5c1.3,0.1,2.4-0.9,2.5-2.1c0-0.1,0-0.3,0-0.4c0.1-0.9-0.4-1.8-1.2-2.1
		c-0.6-0.2-1.2-0.3-1.8-0.3h-2.1v5L292.9,175.5z"/>
	<path d="M305.6,181.6h1.9v-11.3h-1.9v-2.2h6.6v2.2h-1.9v11.3h1.9v2.1h-6.6L305.6,181.6z"/>
	<path d="M321.9,181.6h1.9v-11.2h-3v2.4h-2.4v-4.7h13.7v4.7h-2.4v-2.4h-3v11.2h1.9v2.1h-6.6L321.9,181.6z"/>
	<path d="M340.5,178.7v1.2c0,1,1.3,1.6,2.8,1.6c1.5,0,2.7-0.7,2.7-1.9c0-1.6-1.8-2.1-3.6-2.8c-2.1-0.8-4.1-1.7-4.1-4.5
		c0-3.1,2.6-4.4,5.2-4.4c2.5,0,5,0.9,5,2.8v2h-2.6v-1c0-0.8-1.2-1.2-2.3-1.2s-2.3,0.5-2.3,1.7c0,1.4,1.5,1.9,3.1,2.6
		c2.3,0.8,4.7,1.8,4.7,4.7c0,3.2-2.7,4.7-5.6,4.7c-2.6,0-5.4-1.2-5.4-3.5v-1.8L340.5,178.7z"/>
</g>
</svg>
